<svg width="18" height="22" viewBox="0 0 18 22" fill="none" xmlns="http://www.w3.org/2000/svg">
<path d="M2 12C2 6.91199 4.902 2.56299 9 0.817993C13.097 2.56299 16 6.91199 16 12C16 12.823 15.924 13.626 15.779 14.403L17.719 16.235C17.7994 16.3108 17.8524 16.411 17.8697 16.5201C17.8871 16.6292 17.8679 16.741 17.815 16.838L15.32 21.413C15.2828 21.4813 15.2302 21.54 15.1663 21.5844C15.1024 21.6288 15.0291 21.6576 14.9521 21.6687C14.8751 21.6798 14.7966 21.6727 14.7228 21.6481C14.649 21.6235 14.5819 21.5821 14.527 21.527L12.292 19.293C12.1045 19.1054 11.8502 19 11.585 19H6.414C6.14881 19 5.89449 19.1054 5.707 19.293L3.472 21.527C3.41705 21.5819 3.35008 21.6232 3.2764 21.6476C3.20272 21.6721 3.12434 21.6791 3.04749 21.6681C2.97064 21.657 2.89742 21.6282 2.83363 21.5839C2.76984 21.5396 2.71724 21.4811 2.68 21.413L0.184 16.838C0.131145 16.741 0.111899 16.6292 0.129266 16.5201C0.146634 16.411 0.199637 16.3108 0.28 16.235L2.22 14.403C2.076 13.626 2 12.823 2 12ZM3.475 18.695L4.292 17.878C4.57071 17.5995 4.90157 17.3786 5.26566 17.2279C5.62976 17.0773 6.01997 16.9998 6.414 17H11.585C11.979 16.9998 12.3692 17.0773 12.7333 17.2279C13.0974 17.3786 13.4283 17.5995 13.707 17.878L14.524 18.695L15.506 16.895L14.406 15.857C14.1629 15.6274 13.9812 15.3405 13.8776 15.0225C13.774 14.7046 13.7518 14.3657 13.813 14.037C13.9378 13.3652 14.0004 12.6833 14 12C14 8.12999 12.005 4.69999 9 3.03999C5.995 4.69999 4 8.12999 4 12C4 12.691 4.063 13.372 4.186 14.036C4.24719 14.3647 4.22497 14.7036 4.12137 15.0215C4.01778 15.3395 3.83612 15.6264 3.593 15.856L2.493 16.896L3.475 18.695ZM9 12C8.46957 12 7.96086 11.7893 7.58579 11.4142C7.21071 11.0391 7 10.5304 7 9.99999C7 9.46956 7.21071 8.96085 7.58579 8.58578C7.96086 8.21071 8.46957 7.99999 9 7.99999C9.53043 7.99999 10.0391 8.21071 10.4142 8.58578C10.7893 8.96085 11 9.46956 11 9.99999C11 10.5304 10.7893 11.0391 10.4142 11.4142C10.0391 11.7893 9.53043 12 9 12Z" fill="white"/>
</svg>
